<svg width="26" height="32" viewBox="0 0 26 32" fill="none" xmlns="http://www.w3.org/2000/svg">
<path d="M6.92243 10.6076C7.27461 14.2537 9.63287 16.6617 12.9769 16.6617C16.3207 16.6617 18.6787 14.2536 19.031 10.6076L19.5303 6.66825C19.84 2.798 16.6818 0 12.9769 0C9.2718 0 6.11362 2.798 6.42312 6.66825L6.92243 10.6076Z" fill="#3F3F3F"/>
<path d="M25.9275 26.4105L25.6885 24.8886C25.4884 23.6126 24.6864 22.511 23.5339 21.9286L18.5043 19.3853C18.3469 19.3056 18.2187 19.1856 18.1112 19.0516C16.6552 20.5911 14.8862 21.4966 12.9769 21.4966C11.0676 21.4966 9.29836 20.5911 7.84236 19.0516C7.73492 19.1856 7.60674 19.3056 7.4493 19.3853L2.4198 21.9286C1.26718 22.511 0.4653 23.6126 0.265113 24.8886L0.0259878 26.4105C-0.0591997 26.9538 0.0532378 27.751 0.539863 28.1496C1.19049 28.6816 3.59393 31.9999 12.9769 31.9999C22.3597 31.9999 24.763 28.6816 25.4136 28.1496C25.9004 27.751 26.0127 26.9538 25.9275 26.4105Z" fill="#3F3F3F"/>
</svg>
