<svg width="37" height="37" viewBox="0 0 37 37" fill="none" xmlns="http://www.w3.org/2000/svg">
<path d="M25.8333 18.3966C25.8333 21.4342 23.3709 23.8966 20.3333 23.8966C17.2956 23.8966 14.8333 21.4342 14.8333 18.3966C14.8333 15.3589 17.2956 12.8966 20.3333 12.8966C23.3709 12.8966 25.8333 15.3589 25.8333 18.3966Z" stroke="#A4A4A4" stroke-width="3"/>
<path d="M13 34.8966C13.78 30.6667 15.7867 29.3966 20.3333 29.3966C24.88 29.3966 26.8866 30.5745 27.6667 34.8044" stroke="#A4A4A4" stroke-width="3" stroke-linecap="round"/>
<path d="M2 9.22994H5.66667" stroke="#A4A4A4" stroke-width="3" stroke-linecap="round" stroke-linejoin="round"/>
<path d="M2 27.5633H5.66667" stroke="#A4A4A4" stroke-width="3" stroke-linecap="round" stroke-linejoin="round"/>
<path d="M5.66675 9.22994V5.56327C5.66675 3.53823 7.30837 1.89661 9.33341 1.89661H20.3334H31.3334C33.3585 1.89661 35.0001 3.53823 35.0001 5.56327V9.22994V27.5633V31.2299C35.0001 33.255 33.3585 34.8966 31.3334 34.8966H20.3334H9.33341C7.30837 34.8966 5.66675 33.255 5.66675 31.2299V27.5633V9.22994Z" stroke="#A4A4A4" stroke-width="3" stroke-linecap="round" stroke-linejoin="round"/>
<path d="M2 18.3966H5.66667" stroke="#A4A4A4" stroke-width="3" stroke-linecap="round" stroke-linejoin="round"/>
</svg>
