<svg width="25" height="27" viewBox="0 0 25 27" fill="none" xmlns="http://www.w3.org/2000/svg">
<path fill-rule="evenodd" clip-rule="evenodd" d="M22.6594 1.08341C21.3218 -0.361133 19.1532 -0.361138 17.8156 1.08341L1.65249 18.5396C1.17436 19.056 0.84845 19.7137 0.715845 20.4297L0.04561 24.049C-0.273928 25.7745 1.1347 27.2959 2.73239 26.9507L6.08355 26.2269C6.7466 26.0837 7.35556 25.7317 7.83369 25.2153L23.9968 7.75908C25.3344 6.31455 25.3344 3.97249 23.9968 2.52794L22.6594 1.08341ZM19.4302 2.82711C19.8761 2.34561 20.5989 2.34561 21.0448 2.82711L22.3823 4.27166C22.8282 4.75317 22.8282 5.53385 22.3823 6.01537L19.3322 9.30942L16.3802 6.12116L19.4302 2.82711ZM14.7656 7.86489L3.26704 20.2833C3.10766 20.4555 2.99903 20.6747 2.95483 20.9134L2.28459 24.5326L5.63576 23.8087C5.85677 23.761 6.05976 23.6437 6.21914 23.4716L17.7177 11.0531L14.7656 7.86489Z" fill="black"/>
</svg>
