<svg width="22" height="22" viewBox="0 0 22 22" fill="none" xmlns="http://www.w3.org/2000/svg">
<path d="M21.0672 11.4084C21.0672 10.6975 20.9984 9.96364 20.8837 9.27563H10.9536V13.3348H16.641C16.4117 14.642 15.6549 15.7887 14.5312 16.5226L17.9253 19.1599C19.9205 17.3023 21.0672 14.5962 21.0672 11.4084Z" fill="#4280EF"/>
<path d="M10.9536 21.6826C13.7973 21.6826 16.1824 20.7423 17.9253 19.137L14.5312 16.5226C13.5909 17.1647 12.3755 17.5317 10.9536 17.5317C8.20158 17.5317 5.88531 15.6741 5.03678 13.1973L1.5509 15.8805C3.33971 19.4351 6.96318 21.6826 10.9536 21.6826Z" fill="#34A353"/>
<path d="M5.03674 13.1743C4.601 11.8671 4.601 10.4452 5.03674 9.13802L1.55086 6.43188C0.0601939 9.41322 0.0601939 12.922 1.55086 15.8804L5.03674 13.1743Z" fill="#F6B704"/>
<path d="M10.9536 4.80367C12.4443 4.78074 13.912 5.35407 14.9899 6.38607L17.9941 3.35887C16.0907 1.57006 13.568 0.606861 10.9536 0.629795C6.96318 0.629795 3.33971 2.87727 1.5509 6.43194L5.03678 9.13808C5.88531 6.63834 8.20158 4.80367 10.9536 4.80367Z" fill="#E54335"/>
</svg>
