<svg width="37" height="37" viewBox="0 0 37 37" fill="none" xmlns="http://www.w3.org/2000/svg">
<path d="M18.5001 1.89662C20.1333 1.89361 21.7307 2.37384 23.0904 3.27658C24.45 4.17932 25.5108 5.46404 26.1386 6.96826C26.7664 8.47248 26.933 10.1287 26.6174 11.7273C26.3017 13.326 25.518 14.7954 24.3653 15.9498C23.2126 17.1041 21.7426 17.8914 20.1414 18.2123C18.5402 18.5331 16.8795 18.3731 15.3695 17.7523C13.8594 17.1316 12.5678 16.078 11.6579 14.7249C10.748 13.3718 10.2607 11.7799 10.2577 10.1504V10.1351C10.2577 7.95276 11.1256 5.85958 12.6709 4.315C14.2162 2.77042 16.3127 1.90066 18.5001 1.89662Z" stroke="#A4A4A4" stroke-width="3" stroke-linecap="round" stroke-linejoin="round"/>
<path d="M18.5 21.4267C27.7265 21.4267 35 27.5563 35 30.6092V34.8966H2V30.5325C2 27.4796 9.27352 21.4267 18.5 21.4267Z" stroke="#A4A4A4" stroke-width="3" stroke-linecap="round" stroke-linejoin="round"/>
</svg>
