<svg width="347" height="347" viewBox="0 0 347 347" fill="none" xmlns="http://www.w3.org/2000/svg">
<path d="M345 173.5C345 268.217 268.217 345 173.5 345C78.7832 345 2 268.217 2 173.5C2 78.7832 78.7832 2 173.5 2C268.217 2 345 78.7832 345 173.5Z" fill="#FF5555"/>
<circle cx="174" cy="174" r="143" fill="#FF4C4C"/>
<ellipse cx="174" cy="173.5" rx="122" ry="117.5" fill="#FF3838"/>
<circle cx="173.5" cy="173.5" r="100.5" fill="#FF2525"/>
<path d="M254 174C254 218.183 218.183 254 174 254C129.817 254 94 218.183 94 174C94 129.817 129.817 94 174 94C218.183 94 254 129.817 254 174Z" fill="#FF0202"/>
<circle cx="173.5" cy="173.5" r="171" stroke="#FF0000" stroke-width="5"/>
<path d="M144.785 187.508C143.6 187.508 142.331 187.326 140.977 186.961C139.622 186.596 138.197 186.004 136.699 185.184L137.949 182.137C140.423 183.439 142.624 184.09 144.551 184.09C146.686 184.09 148.242 183.654 149.219 182.781C150.208 181.896 150.703 180.809 150.703 179.52C150.703 178.204 150.241 177.195 149.316 176.492C148.405 175.776 146.888 175.04 144.766 174.285C142.005 173.296 140.078 172.169 138.984 170.906C137.891 169.63 137.344 168.029 137.344 166.102C137.344 164.513 137.721 163.185 138.477 162.117C139.245 161.036 140.28 160.223 141.582 159.676C142.884 159.116 144.342 158.836 145.957 158.836C147.22 158.836 148.529 159.051 149.883 159.48C151.237 159.897 152.624 160.574 154.043 161.512L152.539 164.363C151.354 163.608 150.215 163.068 149.121 162.742C148.04 162.404 147.012 162.234 146.035 162.234C144.421 162.234 143.19 162.573 142.344 163.25C141.497 163.914 141.074 164.839 141.074 166.023C141.074 166.896 141.237 167.618 141.562 168.191C141.901 168.764 142.454 169.266 143.223 169.695C144.004 170.112 145.052 170.535 146.367 170.965C148.685 171.746 150.417 172.54 151.562 173.348C152.708 174.155 153.47 175.034 153.848 175.984C154.225 176.922 154.414 177.983 154.414 179.168C154.414 181.746 153.568 183.784 151.875 185.281C150.182 186.766 147.819 187.508 144.785 187.508ZM170.898 187.508C168.633 187.508 166.712 187.124 165.137 186.355C163.574 185.587 162.311 184.539 161.348 183.211C160.384 181.87 159.681 180.346 159.238 178.641C158.809 176.935 158.594 175.145 158.594 173.27C158.594 171.355 158.822 169.533 159.277 167.801C159.746 166.069 160.469 164.533 161.445 163.191C162.435 161.837 163.711 160.776 165.273 160.008C166.836 159.227 168.711 158.836 170.898 158.836C173.099 158.836 174.974 159.227 176.523 160.008C178.086 160.776 179.355 161.837 180.332 163.191C181.322 164.533 182.044 166.069 182.5 167.801C182.956 169.533 183.184 171.355 183.184 173.27C183.184 175.145 182.962 176.935 182.52 178.641C182.09 180.346 181.393 181.87 180.43 183.211C179.479 184.539 178.216 185.587 176.641 186.355C175.078 187.124 173.164 187.508 170.898 187.508ZM170.898 184.09C172.513 184.09 173.854 183.803 174.922 183.23C175.99 182.645 176.829 181.844 177.441 180.828C178.053 179.812 178.49 178.647 178.75 177.332C179.01 176.017 179.141 174.63 179.141 173.172C179.141 171.141 178.893 169.298 178.398 167.645C177.904 165.991 177.057 164.676 175.859 163.699C174.661 162.723 173.008 162.234 170.898 162.234C168.802 162.234 167.148 162.723 165.938 163.699C164.74 164.676 163.887 165.991 163.379 167.645C162.884 169.298 162.637 171.141 162.637 173.172C162.637 174.63 162.767 176.017 163.027 177.332C163.288 178.647 163.724 179.812 164.336 180.828C164.948 181.844 165.788 182.645 166.855 183.23C167.936 183.803 169.284 184.09 170.898 184.09ZM195.176 187.508C193.991 187.508 192.721 187.326 191.367 186.961C190.013 186.596 188.587 186.004 187.09 185.184L188.34 182.137C190.814 183.439 193.014 184.09 194.941 184.09C197.077 184.09 198.633 183.654 199.609 182.781C200.599 181.896 201.094 180.809 201.094 179.52C201.094 178.204 200.632 177.195 199.707 176.492C198.796 175.776 197.279 175.04 195.156 174.285C192.396 173.296 190.469 172.169 189.375 170.906C188.281 169.63 187.734 168.029 187.734 166.102C187.734 164.513 188.112 163.185 188.867 162.117C189.635 161.036 190.671 160.223 191.973 159.676C193.275 159.116 194.733 158.836 196.348 158.836C197.611 158.836 198.919 159.051 200.273 159.48C201.628 159.897 203.014 160.574 204.434 161.512L202.93 164.363C201.745 163.608 200.605 163.068 199.512 162.742C198.431 162.404 197.402 162.234 196.426 162.234C194.811 162.234 193.581 162.573 192.734 163.25C191.888 163.914 191.465 164.839 191.465 166.023C191.465 166.896 191.628 167.618 191.953 168.191C192.292 168.764 192.845 169.266 193.613 169.695C194.395 170.112 195.443 170.535 196.758 170.965C199.076 171.746 200.807 172.54 201.953 173.348C203.099 174.155 203.861 175.034 204.238 175.984C204.616 176.922 204.805 177.983 204.805 179.168C204.805 181.746 203.958 183.784 202.266 185.281C200.573 186.766 198.21 187.508 195.176 187.508Z" fill="white"/>
</svg>
